<svg width="134" height="70" viewBox="0 0 134 70" fill="none" xmlns="http://www.w3.org/2000/svg" stroke="#F4C21A" stroke-linecap="round" stroke-linejoin="round">
  <!-- Lignes de vitesse -->
  <line x1="1" y1="26" x2="13" y2="26" stroke-width="1.2" stroke-opacity="0.45"/>
  <line x1="1" y1="32" x2="10" y2="32" stroke-width="2" stroke-opacity="0.6"/>
  <line x1="1" y1="38" x2="14" y2="38" stroke-width="1.2" stroke-opacity="0.45"/>
  <line x1="1" y1="20" x2="7"  y2="20" stroke-width="0.9" stroke-opacity="0.3"/>
  <!-- Corps van -->
  <path d="M14 47 L14 19 Q14 11 21 10 L101 10 Q110 10 112 17 L114 47" stroke-width="2.5" fill="rgba(244,194,26,0.07)"/>
  <!-- Pilier A + vitre cabine -->
  <line x1="38" y1="10" x2="38" y2="29" stroke-width="2.2"/>
  <path d="M16 27 L16 15 Q16 11 20 10 L36 10 L36 27 Z" stroke-width="2" fill="rgba(244,194,26,0.14)"/>
  <!-- Fenêtres latérales -->
  <rect x="42" y="13" width="22" height="15" rx="3" stroke-width="2" fill="rgba(244,194,26,0.1)"/>
  <rect x="68" y="13" width="22" height="15" rx="3" stroke-width="2" fill="rgba(244,194,26,0.1)"/>
  <rect x="94" y="13" width="15" height="15" rx="3" stroke-width="2" fill="rgba(244,194,26,0.1)"/>
  <!-- Perso 1 -->
  <circle cx="53" cy="18.5" r="7" stroke-width="2" fill="rgba(255,242,190,0.9)" stroke="#F4C21A"/>
  <path d="M47.5 13 L49 8.5 L50.5 13" fill="#F4C21A" stroke="none"/>
  <path d="M50.5 11.5 L52.5 6.5 L54.5 11.5" fill="#F4C21A" stroke="none"/>
  <path d="M54.5 13 L56 8.5 L57.5 13" fill="#F4C21A" stroke="none"/>
  <circle cx="50.2" cy="17.5" r="3" fill="white" stroke="#F4C21A" stroke-width="1.3"/>
  <circle cx="55.8" cy="17.5" r="3" fill="white" stroke="#F4C21A" stroke-width="1.3"/>
  <circle cx="50.8" cy="18" r="1.4" fill="#071326" stroke="none"/>
  <circle cx="56.4" cy="18" r="1.4" fill="#071326" stroke="none"/>
  <circle cx="51.3" cy="17.4" r="0.55" fill="white" stroke="none"/>
  <circle cx="56.9" cy="17.4" r="0.55" fill="white" stroke="none"/>
  <path d="M48.5 22 Q53 26.5 57.5 22" stroke-width="1.8" fill="rgba(7,19,38,0.75)"/>
  <line x1="50.5" y1="22.2" x2="50.5" y2="25" stroke-width="1.3" stroke="white"/>
  <line x1="53" y1="22.5" x2="53" y2="25.5" stroke-width="1.3" stroke="white"/>
  <line x1="55.5" y1="22.2" x2="55.5" y2="25" stroke-width="1.3" stroke="white"/>
  <path d="M59 23 Q65 19 63 13.5" stroke-width="2.2"/>
  <line x1="63" y1="13.5" x2="65.5" y2="10.5" stroke-width="1.8"/>
  <line x1="63" y1="13.5" x2="66.5" y2="13" stroke-width="1.8"/>
  <line x1="63" y1="13.5" x2="65.5" y2="16" stroke-width="1.8"/>
  <!-- Perso 2 -->
  <circle cx="79" cy="18.5" r="7" stroke-width="2" fill="rgba(255,242,190,0.9)" stroke="#F4C21A"/>
  <circle cx="75.5" cy="16.5" r="3.5" fill="white" stroke="#F4C21A" stroke-width="1.3"/>
  <circle cx="82" cy="16.5" r="2.2" fill="white" stroke="#F4C21A" stroke-width="1.3"/>
  <circle cx="76.2" cy="17.2" r="1.7" fill="#071326" stroke="none"/>
  <circle cx="82.6" cy="17.2" r="1" fill="#071326" stroke="none"/>
  <circle cx="76.8" cy="16.6" r="0.6" fill="white" stroke="none"/>
  <circle cx="83.1" cy="16.6" r="0.4" fill="white" stroke="none"/>
  <path d="M73.5 21 Q79 30 84.5 21" stroke-width="2" fill="rgba(7,19,38,0.85)"/>
  <path d="M76.5 24.5 Q79 28.5 81.5 24.5" stroke-width="1.5" fill="rgba(220,80,60,0.85)" stroke="rgba(200,60,40,0.9)"/>
  <path d="M85 11 L85.6 9 L86.2 11 L88.2 11.6 L86.2 12.2 L85.6 14.2 L85 12.2 L83 11.6 Z" fill="#F4C21A" stroke="none"/>
  <path d="M87 15.5 L87.4 14.2 L87.8 15.5 L89.1 15.9 L87.8 16.3 L87.4 17.6 L87 16.3 L85.7 15.9 Z" fill="#F4C21A" stroke="none" opacity="0.65"/>
  <!-- Perso 3 -->
  <circle cx="101.5" cy="18.5" r="6" stroke-width="2" fill="rgba(255,242,190,0.9)" stroke="#F4C21A"/>
  <rect x="96.5" y="14.5" width="6.5" height="5" rx="1.8" fill="rgba(8,8,8,0.92)" stroke="#F4C21A" stroke-width="1.5"/>
  <rect x="103.5" y="14.5" width="6.5" height="5" rx="1.8" fill="rgba(8,8,8,0.92)" stroke="#F4C21A" stroke-width="1.5"/>
  <line x1="103" y1="17" x2="103.5" y2="17" stroke-width="1.3"/>
  <line x1="96.5" y1="17" x2="94.8" y2="18" stroke-width="1.3"/>
  <line x1="110" y1="17" x2="111.5" y2="18" stroke-width="1.3"/>
  <line x1="97.5" y1="15.5" x2="99" y2="17.5" stroke-width="1" stroke="rgba(255,255,255,0.45)" stroke-linecap="round"/>
  <line x1="104.5" y1="15.5" x2="106" y2="17.5" stroke-width="1" stroke="rgba(255,255,255,0.45)" stroke-linecap="round"/>
  <path d="M97.5 22.5 Q101.5 25 106.5 22.5" stroke-width="1.8" fill="none"/>
  <path d="M100 13.5 Q101.5 10 103 13.5" stroke-width="1.8" fill="none"/>
  <!-- Porte + phare + roues -->
  <line x1="65" y1="29" x2="65" y2="47" stroke-width="1.8"/>
  <path d="M50 40 Q54 39 58 40" stroke-width="2" fill="none"/>
  <ellipse cx="16" cy="34" rx="5" ry="5.5" stroke-width="2.2" fill="rgba(244,194,26,0.22)"/>
  <ellipse cx="16" cy="34" rx="2.5" ry="3" stroke-width="1.4" fill="rgba(244,194,26,0.45)"/>
  <ellipse cx="31" cy="52" rx="11" ry="10" stroke-width="2.5" fill="rgba(244,194,26,0.07)"/>
  <ellipse cx="31" cy="52" rx="4.5" ry="4" stroke-width="2"/>
  <ellipse cx="94" cy="52" rx="11" ry="10" stroke-width="2.5" fill="rgba(244,194,26,0.07)"/>
  <ellipse cx="94" cy="52" rx="4.5" ry="4" stroke-width="2"/>
  <path d="M14 47 Q15 39 31 39 Q47 39 49 47" stroke-width="2.2"/>
  <path d="M77 47 Q78 39 94 39 Q110 39 114 47" stroke-width="2.2"/>
  <line x1="2" y1="65" x2="132" y2="65" stroke-width="1.4" stroke-dasharray="6 4" stroke-opacity="0.4"/>
  <path d="M22 59 Q27 57 32 59" stroke-width="1" stroke-opacity="0.45"/>
  <path d="M85 59 Q90 57 95 59" stroke-width="1" stroke-opacity="0.45"/>
</svg>
